<svg xmlns="http://www.w3.org/2000/svg" viewBox="0 0 682 454" width="682" height="454">
	<defs>
		<linearGradient id="grd1" gradientUnits="userSpaceOnUse"  x1="578.077" y1="0" x2="299.69" y2="383.168">
			<stop offset="0" stop-color="#f81f01"  />
			<stop offset="0.95" stop-color="#ee076e"  />
		</linearGradient>
		<linearGradient id="grd2" gradientUnits="userSpaceOnUse"  x1="655.071" y1="438.46" x2="384.844" y2="340.105">
			<stop offset="0" stop-color="#f81f01"  />
			<stop offset="0.95" stop-color="#ee076e"  />
		</linearGradient>
	</defs>
	<style>
		tspan { white-space:pre }
		.shp0 { fill: url(#grd1) } 
		.shp1 { fill: #ee076e } 
		.shp2 { fill: #ffffff } 
		.shp3 { fill: url(#grd2);stroke: #ffffff;paint-order:stroke fill markers;stroke-width: 26 } 
	</style>
	<path id="Shape 1" class="shp0" d="M210 0L667.77 0L667.77 383.17L210 383.17L210 0Z" />
	<path id="403 " class="shp1" d="M1.12 287.21L1.12 222.05L89.5 62.75L167.58 62.75L79.37 222.05L108.54 222.05L108.54 192.01L171.08 192.01L171.08 222.05L193.78 222.05L193.78 287.21L171.08 287.21L171.08 319L108.54 319L108.54 287.21L1.12 287.21Z" />
	<path id="403 " fill-rule="evenodd" class="shp2" d="M332.13 322.84C305.11 322.84 283.92 316.03 268.55 302.41C253.17 288.78 242.34 271.84 236.06 251.58C229.88 231.2 226.8 210.93 226.8 190.79C226.8 171.81 229.71 152.13 235.53 131.75C241.47 111.37 252.07 94.08 267.32 79.87C282.69 65.66 304.3 58.56 332.13 58.56C360.19 58.56 381.85 65.66 397.11 79.87C412.36 94.08 422.9 111.54 428.72 132.27C434.55 153 437.46 172.51 437.46 190.79C437.46 209.77 434.55 229.45 428.72 249.83C422.9 270.21 412.36 287.5 397.11 301.71C381.85 315.8 360.19 322.84 332.13 322.84ZM332.13 254.2C344.94 254.2 354.2 248.61 359.9 237.43C365.72 226.13 368.64 210.58 368.64 190.79C368.64 171.69 365.84 156.32 360.25 144.67C354.66 133.03 345.29 127.21 332.13 127.21C319.32 127.21 310.06 133.03 304.35 144.67C298.65 156.32 295.8 171.69 295.8 190.79C295.8 210.24 298.71 225.66 304.53 237.08C310.47 248.49 319.67 254.2 332.13 254.2ZM553.79 322.84C532.25 322.84 513.27 318.65 496.85 310.27C480.54 301.77 466.63 289.48 455.1 273.41L506.45 230.44C512.04 238.36 518.45 244.3 525.67 248.26C532.89 252.22 540.98 254.2 549.95 254.2C558.68 254.2 565.26 252.62 569.69 249.48C574.23 246.33 576.5 242.2 576.5 237.08C576.5 232.07 574.4 227.88 570.21 224.5C566.14 221.12 558.86 219.43 548.38 219.43L530.04 219.43L530.04 162.14L547.33 162.14C555.71 162.14 562 160.57 566.19 157.42C570.5 154.28 572.66 150.15 572.66 145.02C572.66 139.78 570.74 135.53 566.89 132.27C563.17 128.89 557.58 127.21 550.12 127.21C541.51 127.21 533.53 129.19 526.19 133.14C518.97 137.1 512.51 143.04 506.8 150.96L455.45 108.17C467.09 91.98 481.07 79.69 497.37 71.31C513.79 62.93 532.66 58.73 553.97 58.73C579.24 58.73 600.6 65.49 618.07 79C635.54 92.5 644.27 112.53 644.27 139.08C644.27 147.93 642.12 157.6 637.81 168.08C633.62 178.56 627.16 186.13 618.42 190.79C627.39 194.98 634.61 202.37 640.08 212.97C645.55 223.45 648.29 233.29 648.29 242.49C648.29 269.04 638.92 289.07 620.17 302.58C601.42 316.09 579.29 322.84 553.79 322.84Z" />
	<path id="page " class="shp3" d="M396.42 341.58L396.42 350.24C398.43 346.73 401.19 344.17 404.7 342.54C408.25 340.92 411.67 340.11 414.96 340.11C423.65 340.11 430.79 343.63 436.39 350.69C441.99 357.75 444.8 366.26 444.8 376.23C444.8 386.23 441.99 394.77 436.39 401.83C430.79 408.88 423.65 412.41 414.96 412.41C411.93 412.41 408.76 411.68 405.47 410.23C402.17 408.78 399.61 406.4 397.77 403.11L397.77 437.05L373.52 437.05L373.52 341.58L396.42 341.58ZM408.48 389.7C411.99 389.7 414.88 388.39 417.14 385.79C419.41 383.13 420.54 379.95 420.54 376.23C420.54 372.55 419.41 369.4 417.14 366.8C414.88 364.14 411.99 362.82 408.48 362.82C405.02 362.82 402.13 364.14 399.82 366.8C397.55 369.4 396.42 372.55 396.42 376.23C396.42 379.95 397.55 383.13 399.82 385.79C402.13 388.39 405.02 389.7 408.48 389.7ZM469.88 412.41C464.32 412.41 459.45 410.85 455.25 407.73C451.11 404.61 449.03 399.86 449.03 393.48C449.03 387.07 451.49 382 456.41 378.28C461.37 374.52 467.89 371.8 475.98 370.13L485.92 368.01L485.92 365.19C485.92 363.82 485.49 362.6 484.64 361.53C483.78 360.42 482.35 359.87 480.34 359.87C476.32 359.87 472.02 362.2 467.44 366.86L451.98 352.81C459.68 344.38 469.35 340.15 480.98 340.11C489.92 340.11 497 342.14 502.22 346.2C507.48 350.26 510.11 357.24 510.11 367.12L510.11 411L487.59 411L487.59 403.17C484.04 409.33 478.14 412.41 469.88 412.41ZM477.84 393.68C480.36 393.68 482.33 392.93 483.74 391.43C485.15 389.93 485.86 388.46 485.86 387L485.92 383.03L477.77 384.82C476.23 385.17 475.1 385.76 474.37 386.62C473.65 387.48 473.28 388.52 473.28 389.76C473.28 390.83 473.67 391.75 474.44 392.52C475.25 393.29 476.38 393.68 477.84 393.68ZM552.2 438.46C538.6 438.46 528.42 435.36 521.66 429.16L532.12 411.06C537.59 414.66 543.56 416.45 550.02 416.45C554.64 416.45 558.44 415.6 561.44 413.89C564.43 412.18 565.93 410.02 565.93 407.41L565.93 400.86C564.09 403.26 561.52 405.16 558.23 406.57C554.93 407.98 551.79 408.69 548.8 408.69C540.5 408.69 533.51 406.06 527.82 400.8C522.13 395.54 519.28 387.13 519.28 375.58C519.28 364.93 522.09 356.36 527.69 349.86C533.29 343.36 540.43 340.11 549.12 340.11C552.41 340.11 555.81 340.92 559.32 342.54C562.87 344.17 565.65 346.73 567.66 350.24L567.66 341.58L590.5 341.58L590.18 408.75C590.18 417.48 586.31 424.62 578.57 430.18C570.82 435.7 562.03 438.46 552.2 438.46ZM555.6 388.67C559.23 388.67 562.14 387.35 564.32 384.7C566.55 382.04 567.66 378.9 567.66 375.26C567.66 371.63 566.55 368.48 564.32 365.83C562.14 363.18 559.23 361.85 555.6 361.85C551.92 361.85 548.97 363.18 546.74 365.83C544.56 368.48 543.47 371.63 543.47 375.26C543.47 378.9 544.56 382.04 546.74 384.7C548.97 387.35 551.92 388.67 555.6 388.67ZM636.12 412.41C625.64 412.41 617.02 408.95 610.26 402.02C603.55 395.09 600.19 386.38 600.19 375.91C600.27 365.55 603.57 357 610.07 350.24C616.61 343.48 624.7 340.11 634.32 340.11C643.86 340.11 651.58 343.42 657.48 350.05C663.43 356.68 666.4 364.83 666.4 374.49C666.4 377.36 666.14 380.33 665.63 383.41L624.12 383.41C624.59 385.98 625.96 388.16 628.22 389.96C630.53 391.71 633.4 392.59 636.82 392.59C642.85 392.59 647.81 390.94 651.71 387.65L663.06 402.15C655.11 408.99 646.12 412.41 636.12 412.41ZM643.05 368.4C642.92 365.92 642.21 363.69 640.93 361.73C639.69 359.76 637.48 358.78 634.32 358.78C631.07 358.78 628.57 359.78 626.81 361.79C625.1 363.76 624.14 365.96 623.93 368.4L643.05 368.4Z" />
</svg>